REM DIRINDEX 1\2,1\3,1\4
REM DIRNAME cjc151,folder01,folder02,folder03
TITLE ""
FILE "042 042_TOEFL_3900.mp3" MP3
  TRACK 01 AUDIO
    TITLE "2:cjc151_1815"
    INDEX 01 00:00:00
  TRACK 02 AUDIO
    TITLE "0:"
    INDEX 01 00:01:21
  TRACK 03 AUDIO
    TITLE "3:cjc151_1816"
    INDEX 01 00:03:00
  TRACK 04 AUDIO
    TITLE "0:"
    INDEX 01 00:07:29
  TRACK 05 AUDIO
    TITLE "2:cjc151_1817"
    INDEX 01 00:09:08
  TRACK 06 AUDIO
    TITLE "0:"
    INDEX 01 00:10:29
  TRACK 07 AUDIO
    TITLE "3:cjc151_1818"
    INDEX 01 00:12:07
  TRACK 08 AUDIO
    TITLE "0:"
    INDEX 01 00:15:23
  TRACK 09 AUDIO
    TITLE "2:cjc151_1819"
    INDEX 01 00:17:02
  TRACK 10 AUDIO
    TITLE "0:"
    INDEX 01 00:18:17
  TRACK 11 AUDIO
    TITLE "3:cjc151_1820"
    INDEX 01 00:19:71
  TRACK 12 AUDIO
    TITLE "0:"
    INDEX 01 00:24:24
  TRACK 13 AUDIO
    TITLE "2:cjc151_1821"
    INDEX 01 00:26:01
  TRACK 14 AUDIO
    TITLE "0:"
    INDEX 01 00:27:04
  TRACK 15 AUDIO
    TITLE "3:cjc151_1822"
    INDEX 01 00:28:57
  TRACK 16 AUDIO
    TITLE "0:"
    INDEX 01 00:32:62
  TRACK 17 AUDIO
    TITLE "2:cjc151_1823"
    INDEX 01 00:34:42
  TRACK 18 AUDIO
    TITLE "0:"
    INDEX 01 00:35:31
  TRACK 19 AUDIO
    TITLE "3:cjc151_1824"
    INDEX 01 00:37:14
  TRACK 20 AUDIO
    TITLE "0:"
    INDEX 01 00:41:02
  TRACK 21 AUDIO
    TITLE "2:cjc151_1825"
    INDEX 01 00:42:57
  TRACK 22 AUDIO
    TITLE "0:"
    INDEX 01 00:43:64
  TRACK 23 AUDIO
    TITLE "3:cjc151_1826"
    INDEX 01 00:45:43
  TRACK 24 AUDIO
    TITLE "0:"
    INDEX 01 00:49:69
  TRACK 25 AUDIO
    TITLE "2:cjc151_1827"
    INDEX 01 00:51:46
  TRACK 26 AUDIO
    TITLE "0:"
    INDEX 01 00:52:55
  TRACK 27 AUDIO
    TITLE "3:cjc151_1828"
    INDEX 01 00:54:34
  TRACK 28 AUDIO
    TITLE "0:"
    INDEX 01 00:58:22
  TRACK 29 AUDIO
    TITLE "2:cjc151_1829"
    INDEX 01 01:00:02
  TRACK 30 AUDIO
    TITLE "0:"
    INDEX 01 01:01:01
  TRACK 31 AUDIO
    TITLE "3:cjc151_1830"
    INDEX 01 01:02:54
  TRACK 32 AUDIO
    TITLE "0:"
    INDEX 01 01:05:73
  TRACK 33 AUDIO
    TITLE "2:cjc151_1831"
    INDEX 01 01:07:51
  TRACK 34 AUDIO
    TITLE "0:"
    INDEX 01 01:08:48
  TRACK 35 AUDIO
    TITLE "3:cjc151_1832"
    INDEX 01 01:10:26
  TRACK 36 AUDIO
    TITLE "0:"
    INDEX 01 01:13:65
  TRACK 37 AUDIO
    TITLE "2:cjc151_1833"
    INDEX 01 01:15:44
  TRACK 38 AUDIO
    TITLE "0:"
    INDEX 01 01:16:54
  TRACK 39 AUDIO
    TITLE "3:cjc151_1834"
    INDEX 01 01:18:31
  TRACK 40 AUDIO
    TITLE "0:"
    INDEX 01 01:21:70
  TRACK 41 AUDIO
    TITLE "2:cjc151_1835"
    INDEX 01 01:23:50
  TRACK 42 AUDIO
    TITLE "0:"
    INDEX 01 01:24:55
  TRACK 43 AUDIO
    TITLE "3:cjc151_1836"
    INDEX 01 01:26:34
  TRACK 44 AUDIO
    TITLE "0:"
    INDEX 01 01:31:12
  TRACK 45 AUDIO
    TITLE "2:cjc151_1837"
    INDEX 01 01:32:66
  TRACK 46 AUDIO
    TITLE "0:"
    INDEX 01 01:34:03
  TRACK 47 AUDIO
    TITLE "3:cjc151_1838"
    INDEX 01 01:35:57
  TRACK 48 AUDIO
    TITLE "0:"
    INDEX 01 01:39:47
  TRACK 49 AUDIO
    TITLE "2:cjc151_1839"
    INDEX 01 01:41:26
  TRACK 50 AUDIO
    TITLE "0:"
    INDEX 01 01:42:53
  TRACK 51 AUDIO
    TITLE "3:cjc151_1840"
    INDEX 01 01:44:26
  TRACK 52 AUDIO
    TITLE "0:"
    INDEX 01 01:48:36
  TRACK 53 AUDIO
    TITLE "2:cjc151_1841"
    INDEX 01 01:50:17
  TRACK 54 AUDIO
    TITLE "0:"
    INDEX 01 01:51:21
  TRACK 55 AUDIO
    TITLE "3:cjc151_1842"
    INDEX 01 01:52:73
  TRACK 56 AUDIO
    TITLE "0:"
    INDEX 01 01:57:29
  TRACK 57 AUDIO
    TITLE "2:cjc151_1843"
    INDEX 01 01:59:08
  TRACK 58 AUDIO
    TITLE "0:"
    INDEX 01 02:00:29
  TRACK 59 AUDIO
    TITLE "3:cjc151_1844"
    INDEX 01 02:02:09
  TRACK 60 AUDIO
    TITLE "0:"
    INDEX 01 02:06:40
  TRACK 61 AUDIO
    TITLE "2:cjc151_1845"
    INDEX 01 02:08:19
  TRACK 62 AUDIO
    TITLE "0:"
    INDEX 01 02:09:24
  TRACK 63 AUDIO
    TITLE "3:cjc151_1846"
    INDEX 01 02:11:10
  TRACK 64 AUDIO
    TITLE "0:"
    INDEX 01 02:14:69
  TRACK 65 AUDIO
    TITLE "2:cjc151_1847"
    INDEX 01 02:16:54
  TRACK 66 AUDIO
    TITLE "0:"
    INDEX 01 02:17:59
  TRACK 67 AUDIO
    TITLE "3:cjc151_1848"
    INDEX 01 02:19:39
  TRACK 68 AUDIO
    TITLE "0:"
    INDEX 01 02:22:35
  TRACK 69 AUDIO
    TITLE "2:cjc151_1849"
    INDEX 01 02:24:14
  TRACK 70 AUDIO
    TITLE "0:"
    INDEX 01 02:25:18
  TRACK 71 AUDIO
    TITLE "3:cjc151_1850"
    INDEX 01 02:26:72
  TRACK 72 AUDIO
    TITLE "0:"
    INDEX 01 02:29:60
  TRACK 73 AUDIO
    TITLE "2:cjc151_1851"
    INDEX 01 02:31:38
  TRACK 74 AUDIO
    TITLE "0:"
    INDEX 01 02:32:37
  TRACK 75 AUDIO
    TITLE "3:cjc151_1852"
    INDEX 01 02:34:17
  TRACK 76 AUDIO
    TITLE "0:"
    INDEX 01 02:37:70
  TRACK 77 AUDIO
    TITLE "2:cjc151_1853"
    INDEX 01 02:39:49
  TRACK 78 AUDIO
    TITLE "0:"
    INDEX 01 02:40:56
  TRACK 79 AUDIO
    TITLE "3:cjc151_1854"
    INDEX 01 02:42:34
  TRACK 80 AUDIO
    TITLE "0:"
    INDEX 01 02:45:61
  TRACK 81 AUDIO
    TITLE "2:cjc151_1855"
    INDEX 01 02:47:39
  TRACK 82 AUDIO
    TITLE "0:"
    INDEX 01 02:48:50
  TRACK 83 AUDIO
    TITLE "3:cjc151_1856"
    INDEX 01 02:50:29
  TRACK 84 AUDIO
    TITLE "0:"
    INDEX 01 02:54:06
  TRACK 85 AUDIO
    TITLE "2:cjc151_1857"
    INDEX 01 02:55:56
  TRACK 86 AUDIO
    TITLE "0:"
    INDEX 01 02:56:67
  TRACK 87 AUDIO
    TITLE "3:cjc151_1858"
    INDEX 01 02:58:46
  TRACK 88 AUDIO
    TITLE "0:"
    INDEX 01 03:02:23
